<?xml version="1.0" standalone="no"?>
<!DOCTYPE svg PUBLIC "-//W3C//DTD SVG 20010904//EN"
 "http://www.w3.org/TR/2001/REC-SVG-20010904/DTD/svg10.dtd">
<svg version="1.0" xmlns="http://www.w3.org/2000/svg"
 width="2005.000000pt" height="1559.000000pt" viewBox="0 0 2005.000000 1559.000000"
 preserveAspectRatio="xMidYMid meet">

<g transform="translate(0.000000,1559.000000) scale(0.100000,-0.100000)"
fill="#000000" stroke="none">
<path d="M13281 15360 c-65 -14 -197 -59 -266 -91 -80 -37 -204 -116 -350
-224 -66 -48 -143 -98 -170 -111 -68 -31 -161 -44 -335 -44 -177 0 -286 -13
-390 -46 -121 -38 -208 -102 -367 -272 -276 -293 -264 -285 -366 -241 -81 34
-267 81 -459 114 -458 80 -1807 251 -2166 275 -165 11 -211 24 -237 64 -37 55
-121 57 -279 5 -233 -77 -559 -288 -581 -377 -4 -15 -25 -45 -48 -67 -29 -28
-63 -82 -109 -175 -81 -162 -165 -298 -301 -485 -295 -408 -494 -693 -912
-1303 -253 -370 -549 -801 -657 -960 -108 -158 -249 -363 -312 -457 -448 -665
-638 -942 -719 -1048 -52 -67 -151 -207 -222 -312 -71 -104 -231 -336 -355
-515 -125 -179 -296 -426 -380 -550 -84 -124 -300 -439 -480 -700 -1101 -1600
-1646 -2410 -1737 -2578 -20 -37 -64 -96 -98 -132 -77 -82 -110 -131 -170
-250 -58 -117 -153 -275 -290 -484 -177 -270 -226 -382 -226 -516 1 -244 142
-373 514 -470 62 -17 358 -79 657 -139 530 -107 955 -195 1830 -380 408 -86
580 -121 1140 -230 140 -28 577 -116 970 -196 393 -80 938 -191 1210 -245 678
-135 896 -186 920 -215 15 -18 5 -35 -20 -35 -24 0 -40 -29 -40 -69 0 -42 26
-55 85 -40 40 10 51 9 95 -10 87 -38 579 -150 990 -226 373 -69 657 -127 955
-196 485 -113 935 -199 1041 -199 132 0 348 108 521 261 179 158 392 431 713
914 216 323 214 321 1193 1886 458 734 858 1372 889 1419 30 47 208 335 395
640 585 954 933 1517 1055 1706 36 55 125 201 198 325 198 332 356 589 510
824 145 223 213 333 249 403 12 24 65 109 118 190 53 81 175 273 271 427 341
546 423 651 562 717 84 40 144 97 184 177 34 66 56 152 56 218 0 134 45 238
222 513 134 209 233 378 345 585 267 495 296 570 268 679 -34 131 -109 196
-299 260 -201 67 -590 129 -1921 306 -170 23 -497 71 -725 106 -228 35 -418
64 -422 64 -4 0 13 42 37 93 25 50 52 124 60 162 18 85 18 276 1 325 -21 59
-86 80 -341 111 -206 24 -277 43 -314 80 -16 15 -45 67 -66 116 -57 135 -134
244 -259 368 -154 153 -232 195 -436 236 -109 22 -362 33 -429 19z m359 -219
c109 -10 179 -45 289 -148 104 -96 189 -210 244 -326 25 -50 63 -130 85 -177
23 -48 49 -94 60 -103 25 -23 82 -33 369 -62 135 -13 248 -27 251 -30 3 -3 -2
-41 -11 -86 -19 -98 -74 -212 -159 -329 -96 -134 -113 -172 -113 -261 0 -69 4
-83 42 -161 49 -98 141 -204 239 -274 34 -24 140 -82 236 -128 239 -115 359
-187 491 -295 89 -73 117 -114 117 -172 0 -93 -61 -239 -112 -265 -77 -40
-362 -7 -1968 230 -168 25 -330 50 -360 56 -88 17 -292 47 -620 90 -335 45
-682 95 -975 141 -336 53 -1247 188 -1680 250 -490 69 -926 151 -961 179 -40
34 7 103 140 204 174 134 369 214 666 275 159 33 357 51 643 60 231 8 282 12
337 30 108 34 242 121 376 243 71 65 232 264 306 378 66 102 86 121 158 154
100 45 193 57 460 60 292 3 285 2 455 121 350 246 460 311 579 347 51 15 84
17 196 13 74 -3 173 -9 220 -14z m-5512 -473 c6 -7 13 -30 17 -50 4 -21 12
-42 19 -47 6 -5 54 -14 106 -20 171 -21 597 -81 1045 -147 861 -127 1184 -167
1518 -189 121 -8 222 -17 224 -19 10 -9 -109 -88 -158 -106 -75 -26 -222 -46
-524 -70 -295 -24 -489 -49 -655 -86 -220 -49 -329 -91 -468 -180 -79 -50 -91
-55 -132 -51 -25 3 -72 15 -105 28 -58 23 -69 24 -360 24 -235 0 -305 3 -324
14 -49 27 -181 -6 -258 -65 -27 -20 -33 -32 -33 -62 0 -48 -43 -138 -115 -237
-123 -171 -359 -462 -444 -547 -21 -21 -50 -63 -65 -94 -50 -101 -112 -199
-264 -416 -254 -363 -592 -878 -592 -902 0 -13 -82 -130 -245 -346 -349 -465
-606 -829 -679 -965 -173 -318 -292 -513 -524 -855 -268 -396 -406 -580 -611
-820 -148 -172 -292 -352 -499 -625 -84 -110 -195 -256 -248 -325 -53 -69
-162 -219 -242 -335 -81 -115 -232 -325 -335 -465 -104 -140 -244 -338 -311
-440 -472 -712 -692 -1040 -813 -1210 -161 -226 -193 -277 -223 -345 -48 -108
-68 -140 -153 -238 -101 -117 -132 -169 -118 -195 16 -30 55 -60 105 -83 48
-21 65 -21 910 -35 1137 -18 1318 -27 1721 -90 308 -48 421 -63 570 -79 188
-19 282 -38 414 -82 61 -20 128 -35 165 -37 91 -4 346 -112 648 -273 189 -101
520 -254 985 -454 553 -238 1219 -410 1773 -459 63 -5 174 -23 246 -39 130
-30 222 -41 484 -60 74 -6 178 -19 230 -30 138 -29 311 -49 600 -70 140 -10
256 -18 256 -17 1 0 76 120 166 266 331 533 575 953 761 1305 307 585 588
1090 827 1490 75 127 194 329 263 451 155 272 249 424 476 764 191 285 340
499 498 712 153 206 261 364 508 743 480 737 616 930 941 1332 247 304 302
355 523 478 178 99 615 305 647 305 9 0 61 30 116 66 97 64 169 96 196 87 35
-13 -1 -82 -118 -231 -27 -34 -57 -85 -67 -114 -12 -34 -40 -75 -87 -127 -38
-42 -75 -91 -83 -109 -17 -41 -128 -223 -248 -407 -126 -193 -201 -322 -236
-406 -33 -82 -44 -98 -76 -110 -24 -9 -42 -35 -118 -169 -26 -47 -104 -173
-173 -280 -409 -637 -427 -666 -496 -810 -6 -14 -21 -26 -31 -28 -30 -6 -56
-32 -75 -77 -41 -93 -256 -440 -400 -645 -74 -105 -143 -271 -133 -320 4 -21
-2 -42 -22 -75 -29 -50 -42 -55 -25 -11 15 40 13 86 -4 86 -21 0 -57 -51 -104
-146 -23 -45 -63 -110 -90 -145 -75 -99 -157 -225 -292 -449 -68 -113 -250
-399 -404 -637 -155 -238 -335 -519 -400 -625 -66 -106 -235 -375 -376 -598
-141 -223 -312 -497 -380 -610 -68 -113 -152 -248 -188 -300 -110 -159 -136
-200 -219 -346 -44 -77 -127 -210 -184 -295 -58 -84 -161 -248 -229 -363 -182
-304 -234 -353 -455 -437 -213 -80 -372 -97 -480 -49 -64 28 -302 89 -520 134
-902 186 -1129 231 -1315 261 -223 37 -732 137 -1265 249 -544 114 -934 194
-1135 231 -319 59 -695 134 -855 170 -82 19 -294 63 -470 99 -176 35 -435 89
-575 120 -280 60 -608 127 -1480 302 -998 200 -1359 274 -1575 324 -599 139
-706 203 -682 410 24 198 385 770 1463 2315 127 182 399 573 604 870 654 946
821 1186 940 1350 197 270 565 795 860 1225 409 596 697 1010 973 1395 75 105
180 260 234 345 54 85 176 267 272 405 338 485 643 938 704 1042 15 26 56 81
91 121 34 41 91 119 125 175 709 1156 719 1171 870 1271 78 52 364 201 413
215 45 13 44 13 56 -1z m7327 -1093 c149 -19 511 -69 805 -110 652 -92 1188
-160 1373 -175 186 -14 265 -31 374 -78 213 -93 268 -164 212 -277 -12 -23
-66 -98 -121 -166 -122 -152 -230 -311 -333 -489 -141 -243 -313 -507 -360
-550 -26 -25 -30 -25 -188 -25 l-162 0 -76 -36 c-41 -20 -136 -70 -210 -111
-236 -132 -502 -258 -515 -245 -11 10 30 96 161 347 258 492 360 664 442 741
60 55 75 63 165 83 44 10 98 63 98 96 0 24 -6 31 -42 44 -80 30 -183 37 -594
43 l-411 6 -54 51 c-275 261 -384 340 -704 509 -281 148 -395 238 -395 311 1
88 57 92 535 31z m-6526 -2 l91 -6 -27 -46 c-15 -25 -55 -86 -89 -136 -115
-167 -142 -248 -96 -285 30 -24 107 -40 195 -40 168 0 592 -50 1057 -125 524
-84 959 -149 1995 -300 573 -84 1201 -179 1575 -240 184 -30 376 -59 427 -65
50 -5 217 -30 370 -54 153 -25 382 -56 508 -71 127 -14 295 -35 375 -47 85
-13 196 -22 270 -22 107 -1 132 2 171 20 70 33 116 87 170 204 27 58 55 116
62 130 l13 25 233 -2 c313 -3 361 -17 361 -103 0 -36 -9 -55 -122 -260 -47
-85 -137 -254 -200 -375 -135 -259 -174 -324 -277 -465 -93 -127 -135 -170
-223 -227 -117 -76 -1271 -680 -2163 -1133 -198 -100 -445 -226 -550 -280
-104 -54 -428 -218 -720 -365 -291 -147 -683 -345 -870 -440 -187 -95 -905
-456 -1595 -802 -2116 -1061 -2395 -1193 -2530 -1193 -79 0 -110 -17 -162 -88
-178 -241 -421 -462 -826 -749 -210 -149 -266 -194 -304 -247 -35 -48 -36 -89
-3 -121 34 -35 71 -32 123 10 117 92 392 143 947 175 335 20 400 34 507 116
233 177 864 507 4143 2164 308 156 722 366 920 468 596 306 688 352 985 497
702 340 1173 555 1218 555 18 0 47 14 75 35 83 64 91 76 -163 -270 -219 -298
-386 -540 -617 -895 -269 -412 -326 -497 -568 -835 -396 -554 -611 -865 -670
-970 -15 -27 -53 -81 -85 -120 -84 -102 -169 -236 -342 -540 -85 -149 -218
-372 -295 -495 -237 -380 -468 -784 -698 -1220 -229 -435 -439 -801 -679
-1185 -216 -347 -270 -409 -379 -437 -70 -18 -288 -15 -502 6 -1516 151 -2309
331 -3165 718 -179 81 -605 295 -795 399 -201 110 -314 143 -845 243 -860 164
-1120 188 -2495 231 -450 14 -730 29 -782 40 -30 7 -29 33 3 81 39 59 133 151
168 165 17 7 41 22 54 33 21 19 23 26 17 96 -7 73 -6 77 34 157 23 45 83 139
133 210 133 186 228 333 228 350 0 21 27 63 147 232 57 79 147 212 200 295
372 581 926 1348 1294 1791 644 774 912 1148 1452 2024 244 398 461 726 725
1098 212 298 272 387 664 978 255 384 482 715 696 1015 169 236 467 624 503
654 18 15 48 27 77 31 26 3 54 8 62 9 29 7 498 6 589 -1z m8286 -2083 c17 -18
17 -22 0 -72 -17 -54 -94 -202 -101 -196 -13 14 -90 140 -105 172 -13 29 -15
45 -7 59 27 50 177 77 213 37z m-417 -204 c31 -16 122 -110 122 -125 0 -43
-239 -156 -438 -207 -53 -14 -130 -26 -170 -27 -80 -2 -102 11 -102 59 0 41
147 146 341 245 136 69 195 82 247 55z m-746 -429 c54 -72 98 -162 105 -217 5
-36 3 -40 -33 -63 -149 -93 -1189 -623 -3549 -1807 -748 -376 -1502 -757
-1675 -848 -660 -345 -803 -419 -1435 -748 -983 -510 -1421 -730 -1487 -744
-52 -12 -62 -11 -99 5 -57 26 -133 113 -154 176 -22 64 -15 124 17 155 31 30
353 203 1143 611 715 370 7093 3553 7108 3547 7 -3 33 -33 59 -67z m-8611
-4227 c70 -20 73 -49 14 -121 -40 -47 -58 -98 -53 -153 3 -35 7 -40 41 -52 55
-19 97 -52 97 -77 0 -33 -98 -121 -156 -140 -66 -22 -205 -37 -347 -37 -112 0
-119 1 -142 25 -65 64 -2 209 164 376 157 156 271 210 382 179z m429 -4680 c0
-5 -24 -10 -54 -10 -30 0 -58 5 -61 10 -4 6 17 10 54 10 34 0 61 -4 61 -10z
m2622 -466 c11 -22 10 -28 -7 -40 -21 -16 -111 -19 -120 -4 -6 10 81 69 103
70 7 0 18 -12 24 -26z"/>
<path d="M13345 14961 c-81 -38 -167 -105 -253 -195 -153 -162 -180 -236 -124
-349 40 -79 109 -165 163 -203 32 -22 53 -29 88 -28 140 2 336 127 442 280 46
67 72 150 65 202 -14 102 -129 251 -230 298 -65 30 -78 30 -151 -5z m131 -222
c71 -79 -95 -339 -216 -339 -35 0 -86 29 -99 56 -37 83 23 173 174 259 89 50
113 55 141 24z"/>
<path d="M9215 12637 c-66 -67 -168 -175 -228 -239 -82 -90 -120 -123 -165
-145 -55 -27 -62 -28 -202 -26 -169 1 -243 16 -248 50 -7 47 114 104 257 122
89 11 127 24 159 53 45 43 19 89 -59 103 -53 10 -210 -12 -298 -41 -157 -52
-231 -130 -231 -242 0 -128 94 -192 281 -192 48 0 121 7 161 16 40 8 101 15
136 16 53 0 69 -4 104 -28 119 -84 96 -84 336 0 57 20 116 36 132 36 16 0 50
-16 80 -36 67 -46 114 -62 220 -74 155 -18 300 14 308 67 5 33 -27 44 -165 54
-143 10 -159 13 -191 43 -22 20 -23 25 -17 112 6 79 5 93 -11 108 -27 28 -75
14 -181 -50 -119 -72 -203 -106 -251 -102 -31 2 -36 6 -34 23 4 24 58 104 159
232 127 164 163 263 95 263 -20 0 -54 -28 -147 -123z"/>
<path d="M12105 12338 c-38 -21 -67 -53 -120 -133 -29 -44 -105 -135 -169
-203 -161 -172 -236 -290 -236 -373 0 -32 31 -59 68 -59 60 0 113 52 173 171
38 76 77 118 99 104 5 -3 13 -24 16 -47 18 -111 236 -278 364 -278 65 0 90 13
90 47 0 34 -50 80 -135 123 -112 58 -174 144 -129 181 9 7 59 16 118 20 166
12 221 50 133 92 -26 13 -81 22 -178 30 l-140 12 32 50 c70 110 129 220 129
241 0 12 -7 25 -16 28 -25 9 -77 6 -99 -6z"/>
<path d="M10330 12330 c-105 -18 -175 -68 -216 -155 -89 -189 78 -385 343
-402 122 -8 223 27 223 78 0 20 -10 23 -94 34 -50 7 -167 43 -246 77 l-45 19
133 53 c205 82 241 129 162 218 -59 68 -155 97 -260 78z"/>
<path d="M13054 12242 c-83 -60 -304 -354 -376 -498 -50 -102 -62 -182 -32
-215 33 -36 68 -48 165 -54 119 -8 189 -28 248 -69 48 -32 118 -56 291 -96
105 -24 177 -57 229 -103 52 -44 117 -70 162 -64 93 12 181 100 195 194 8 57
36 97 109 155 99 79 98 118 -2 139 -69 14 -258 7 -294 -10 -16 -8 -35 -33 -49
-62 -12 -27 -30 -53 -39 -59 -10 -5 -60 -11 -112 -15 -52 -3 -125 -12 -164
-20 -44 -9 -83 -11 -105 -6 -96 22 -106 52 -40 130 36 42 60 88 60 112 0 5
-11 21 -25 34 -18 19 -35 25 -70 25 -60 0 -99 -21 -160 -85 -59 -63 -101 -77
-206 -73 l-70 3 56 93 c30 52 94 145 142 208 155 202 193 262 193 298 0 61
-49 79 -106 38z m678 -869 c24 -21 24 -63 0 -63 -24 0 -42 19 -42 45 0 37 14
43 42 18z"/>
<path d="M11220 12170 c-109 -26 -202 -95 -221 -162 -27 -102 48 -215 186
-279 120 -56 316 -64 323 -12 4 25 -39 53 -148 98 -128 54 -186 113 -147 153
10 10 52 20 117 27 104 13 140 30 140 66 0 27 -78 88 -134 104 -55 16 -65 17
-116 5z"/>
<path d="M13618 12111 c-29 -26 -33 -35 -33 -80 0 -43 4 -54 34 -85 19 -20 43
-36 52 -36 23 0 76 62 84 99 10 45 -3 88 -32 111 -36 28 -67 25 -105 -9z"/>
<path d="M14754 11862 c-50 -37 -149 -145 -180 -198 -26 -44 -40 -50 -203 -89
-168 -40 -204 -145 -51 -145 88 0 90 -18 11 -138 -65 -98 -91 -145 -91 -161 0
-22 72 -91 94 -91 29 0 49 23 140 161 76 116 126 172 173 190 36 13 165 11
273 -6 117 -18 237 -19 270 -2 19 10 25 20 25 46 0 61 -68 90 -260 111 -210
22 -234 49 -145 160 54 68 74 118 60 154 -17 44 -61 47 -116 8z"/>
<path d="M7356 11399 c-81 -54 -188 -193 -216 -281 -6 -21 -42 -71 -82 -115
-82 -90 -107 -139 -108 -205 0 -39 6 -54 31 -82 33 -38 45 -43 214 -81 121
-27 598 -115 625 -115 9 0 40 35 73 83 31 46 84 115 118 153 144 162 267 359
285 457 12 69 -15 82 -282 137 -240 49 -448 80 -540 80 -62 0 -76 -4 -118 -31z
m449 -184 c163 -38 198 -56 203 -102 5 -46 -89 -225 -152 -289 -59 -61 -96
-74 -207 -74 -131 0 -445 67 -456 97 -7 19 29 94 103 214 108 175 149 203 279
195 44 -3 148 -21 230 -41z"/>
<path d="M8788 11123 c-50 -13 15 -90 99 -116 69 -22 91 -25 263 -37 85 -6
187 -17 225 -26 188 -41 266 -54 460 -79 260 -32 430 -59 845 -135 540 -98
1058 -165 1131 -147 56 14 56 103 0 131 -14 7 -66 16 -116 20 -219 17 -641 83
-895 140 -181 40 -302 59 -535 81 -168 16 -413 50 -855 119 -124 20 -272 40
-329 46 -103 10 -260 12 -293 3z"/>
<path d="M8577 10713 c-14 -14 -6 -71 13 -96 28 -35 82 -51 310 -91 107 -19
539 -105 958 -191 1707 -347 2022 -403 2486 -435 214 -15 256 -7 256 52 0 44
-45 82 -126 108 -58 18 -107 23 -304 31 -289 10 -392 22 -590 65 -156 33 -379
76 -940 179 -496 91 -902 171 -1290 255 -498 108 -749 148 -773 123z"/>
<path d="M6121 9443 c-37 -38 -120 -135 -186 -218 -177 -222 -221 -271 -289
-315 -101 -65 -106 -70 -106 -94 0 -82 150 -146 286 -123 106 18 334 -24 498
-93 39 -17 82 -30 96 -30 56 0 114 62 314 339 191 263 225 327 197 379 -16 29
-93 55 -276 92 -191 38 -309 71 -375 105 -27 14 -59 25 -71 25 -13 0 -47 -26
-88 -67z m324 -208 c149 -23 215 -43 215 -67 0 -47 -112 -217 -206 -314 l-46
-47 -64 7 c-73 7 -384 83 -398 96 -20 20 197 294 255 323 42 21 115 21 244 2z"/>
<path d="M7417 9139 c-24 -34 -21 -54 13 -83 57 -48 178 -74 520 -111 203 -23
384 -49 605 -90 604 -110 1253 -200 1338 -184 70 12 87 57 35 89 -46 28 -120
43 -503 100 -187 28 -583 91 -880 140 -767 127 -918 150 -1021 157 -87 6 -92
5 -107 -18z"/>
<path d="M7043 8670 c-44 -18 -21 -70 44 -103 46 -24 132 -45 289 -72 82 -15
255 -47 384 -71 185 -36 263 -46 365 -49 115 -3 145 -8 265 -43 142 -41 292
-71 500 -98 69 -9 204 -31 300 -50 261 -50 290 -46 290 42 0 95 -8 97 -626
174 -421 53 -856 121 -1232 195 -392 76 -534 95 -579 75z"/>
<path d="M11393 7750 c-49 -20 -47 -77 4 -103 15 -8 100 -34 188 -57 88 -24
182 -49 210 -56 70 -20 111 -18 135 6 11 11 20 24 20 29 0 5 2 16 6 24 8 22
-42 75 -98 103 -87 44 -188 64 -322 63 -67 0 -131 -4 -143 -9z"/>
<path d="M4883 7689 c-35 -13 -92 -80 -123 -143 -16 -34 -77 -124 -136 -201
-116 -153 -208 -287 -223 -328 -25 -66 110 -146 283 -168 72 -9 154 -33 304
-87 67 -24 104 -17 181 35 75 50 181 156 181 180 0 27 76 181 160 322 116 197
124 247 40 272 -36 11 -51 10 -115 -9 -122 -36 -145 -32 -347 64 -129 61 -173
75 -205 63z m264 -294 c40 -12 93 -35 119 -50 46 -27 46 -28 40 -68 -16 -99
-125 -305 -170 -321 -47 -17 -417 68 -471 108 -20 14 -20 15 -1 51 29 53 182
240 217 266 76 54 131 57 266 14z"/>
<path d="M6001 7250 c-20 -9 -22 -15 -17 -42 14 -72 58 -88 321 -118 214 -24
340 -46 414 -71 66 -23 114 -24 135 -3 45 45 -23 135 -124 164 -134 39 -680
91 -729 70z"/>
<path d="M5732 6810 c-41 -17 -47 -64 -13 -104 38 -43 69 -50 241 -52 91 -1
247 -11 347 -23 214 -25 281 -26 328 -7 34 15 54 53 40 76 -17 28 -71 43 -145
41 -41 -1 -129 8 -195 19 -253 45 -374 60 -475 59 -58 0 -115 -4 -128 -9z"/>
<path d="M9145 6512 c-43 -10 -44 -41 -4 -80 46 -45 127 -72 244 -83 134 -13
316 -41 640 -99 557 -100 576 -102 633 -64 30 20 28 47 -8 88 -41 46 -88 57
-450 107 -311 43 -397 58 -469 83 -88 32 -509 66 -586 48z"/>
<path d="M8533 6249 c-16 -19 -5 -63 21 -87 36 -34 134 -60 504 -133 196 -39
532 -106 747 -150 467 -96 606 -119 706 -119 88 0 109 14 109 73 0 63 -47 79
-370 122 -223 30 -612 100 -810 145 -606 139 -878 183 -907 149z"/>
<path d="M3529 5801 c-71 -15 -86 -31 -214 -231 -81 -127 -139 -196 -262 -316
-78 -76 -93 -96 -93 -121 0 -54 72 -85 300 -128 313 -59 458 -100 523 -148
100 -76 142 -36 278 269 79 178 140 297 189 369 37 55 54 109 41 133 -37 70
-621 202 -762 173z m272 -182 c74 -10 156 -26 182 -35 41 -14 47 -20 47 -43 0
-45 -35 -136 -117 -300 l-76 -153 -71 7 c-132 13 -396 73 -431 99 -16 11 -16
16 5 57 24 48 191 327 222 371 20 30 6 30 239 -3z"/>
<path d="M4692 5420 c-40 -18 -43 -22 -40 -52 6 -64 85 -88 356 -108 154 -11
339 -41 742 -119 140 -27 302 -54 360 -61 81 -8 147 -25 285 -70 99 -33 239
-73 310 -89 72 -16 249 -63 395 -104 423 -121 613 -165 820 -192 69 -9 231
-34 360 -55 561 -93 1465 -214 1535 -204 63 8 103 28 117 59 33 72 -121 120
-482 150 -216 19 -371 39 -490 65 -120 26 -150 29 -375 40 -397 20 -708 77
-1365 250 -63 17 -182 44 -265 61 -82 17 -258 57 -390 89 -132 33 -271 64
-310 70 -86 14 -301 62 -625 141 -598 147 -830 178 -938 129z"/>
<path d="M4610 4900 c-17 -32 -2 -60 43 -80 24 -11 137 -32 262 -50 466 -66
795 -125 1035 -185 96 -24 209 -48 250 -55 168 -27 588 -115 790 -167 221 -56
332 -83 432 -103 31 -6 97 -31 147 -55 183 -89 552 -184 838 -215 112 -12 161
-2 182 38 39 73 6 86 -419 162 -170 31 -322 71 -546 143 -239 78 -455 133
-710 182 -242 47 -553 114 -735 160 -224 57 -318 74 -494 90 -161 15 -227 26
-380 64 -44 11 -165 32 -270 46 -104 14 -214 30 -244 35 -30 6 -81 10 -112 10
-48 0 -60 -3 -69 -20z"/>
<path d="M16165 4926 c-171 -41 -528 -212 -760 -362 -120 -77 -258 -148 -595
-304 -168 -78 -339 -160 -380 -182 -41 -22 -199 -100 -351 -173 -323 -155
-423 -211 -495 -281 -111 -108 -85 -169 151 -344 166 -123 363 -288 800 -669
463 -403 514 -447 760 -651 235 -195 500 -422 712 -611 78 -70 207 -175 285
-234 79 -59 161 -124 183 -145 57 -54 188 -136 397 -250 l181 -99 91 48 c50
27 276 141 501 254 1125 566 1518 776 1815 972 235 155 350 274 350 361 0 65
-265 290 -1050 889 -369 282 -712 552 -1002 788 -119 97 -386 289 -783 562
-214 147 -403 278 -420 290 -16 12 -64 46 -105 77 -41 30 -90 60 -109 66 -42
15 -111 14 -176 -2z m142 -240 c298 -123 977 -590 1608 -1106 387 -316 483
-392 610 -483 66 -47 145 -104 175 -126 30 -21 123 -99 206 -173 236 -209 358
-305 534 -419 106 -69 160 -116 160 -139 0 -34 -127 -127 -395 -290 -93 -57
-255 -159 -360 -228 -190 -125 -236 -150 -395 -217 -47 -20 -134 -65 -195 -99
-138 -80 -241 -131 -280 -140 -54 -13 -236 -96 -574 -262 l-333 -164 -132 77
c-173 100 -239 146 -501 342 -441 331 -930 733 -1440 1181 -765 674 -902 797
-1051 945 -133 132 -153 160 -133 180 51 51 1002 528 1819 912 343 162 530
242 565 242 17 0 67 -14 112 -33z"/>
<path d="M16135 4406 c-33 -13 -151 -64 -262 -114 -110 -50 -272 -121 -360
-157 -280 -116 -312 -133 -370 -188 -56 -53 -44 -92 44 -136 54 -27 190 -136
318 -254 208 -193 284 -250 349 -260 26 -4 49 -17 67 -37 24 -26 35 -30 79
-30 81 0 179 39 570 226 342 164 460 228 483 265 34 54 -83 172 -418 425 -269
203 -371 272 -412 279 -16 3 -53 -5 -88 -19z m675 -616 c0 -30 -348 -215 -426
-226 l-39 -6 30 25 c17 14 86 57 155 95 182 101 280 141 280 112z"/>
<path d="M14663 3664 c-14 -36 82 -120 391 -341 186 -134 319 -238 446 -347
36 -31 75 -56 87 -56 29 0 63 45 63 85 0 45 -60 99 -300 269 -107 77 -238 174
-291 216 -130 105 -181 138 -250 166 -69 28 -137 32 -146 8z"/>
<path d="M14418 3549 c-11 -6 -18 -22 -18 -41 0 -24 15 -46 78 -110 86 -89
233 -211 347 -288 92 -62 171 -129 375 -319 264 -246 358 -323 383 -315 46 14
47 32 2 120 -60 120 -208 270 -412 421 -144 105 -256 199 -388 321 -134 126
-284 223 -339 222 -6 0 -19 -5 -28 -11z"/>
<path d="M17266 3364 c-9 -8 -16 -19 -16 -23 0 -28 99 -123 292 -279 123 -99
264 -218 313 -263 208 -190 456 -384 552 -433 35 -18 80 -21 102 -7 49 31
-104 217 -266 323 -104 69 -253 188 -403 322 -315 282 -447 376 -529 376 -16
0 -37 -7 -45 -16z"/>
<path d="M17066 3289 c-15 -12 -26 -30 -26 -45 0 -59 78 -155 155 -189 33 -14
92 -62 175 -140 69 -65 190 -174 270 -244 276 -241 405 -359 480 -438 46 -48
87 -83 104 -87 40 -10 82 10 96 45 10 24 9 35 -11 76 -29 61 -155 190 -195
198 -16 3 -38 8 -50 10 -11 3 -38 26 -59 52 -97 119 -754 690 -878 763 l-34
20 -27 -21z"/>
<path d="M16777 3079 c-26 -15 -49 -74 -41 -104 4 -15 20 -33 38 -42 102 -53
514 -401 821 -694 152 -145 234 -210 307 -244 64 -30 80 -31 101 -7 44 48 8
103 -137 211 -50 38 -156 130 -236 205 -80 75 -210 197 -290 272 -264 248
-475 414 -524 414 -12 0 -29 -5 -39 -11z"/>
<path d="M16625 2068 c-22 -13 -94 -41 -159 -63 -138 -46 -167 -70 -145 -119
18 -38 80 -67 163 -76 88 -10 99 -23 90 -102 -9 -76 0 -102 39 -127 45 -28
181 -58 297 -67 119 -8 150 -21 186 -75 74 -110 122 5 63 152 -47 121 -135
222 -250 290 -95 55 -118 77 -154 145 -26 50 -34 59 -60 61 -16 2 -48 -7 -70
-19z"/>
<path d="M1536 3125 c-7 -19 37 -71 52 -61 16 9 15 49 0 64 -17 17 -45 15 -52
-3z"/>
<path d="M1725 3075 c31 -24 142 -55 197 -55 113 0 -2 49 -152 64 -60 6 -63 5
-45 -9z"/>
<path d="M2335 2960 c-3 -5 0 -13 8 -16 23 -8 82 0 82 11 0 14 -82 19 -90 5z"/>
<path d="M2620 2920 c0 -24 131 -102 146 -87 11 11 -27 67 -56 82 -33 17 -90
20 -90 5z"/>
<path d="M2965 2836 c-19 -14 -19 -15 -1 -35 24 -26 47 -27 77 -1 24 20 24 20
5 35 -25 19 -56 19 -81 1z"/>
<path d="M3111 2826 c-23 -27 4 -54 77 -76 92 -29 393 -89 483 -96 62 -5 77
-4 88 10 31 37 -24 56 -289 101 -85 14 -197 37 -248 50 -111 29 -97 28 -111
11z"/>
<path d="M4050 2630 c-13 -9 -12 -12 5 -25 29 -23 91 -37 130 -29 31 5 36 3
44 -19 11 -28 38 -40 93 -40 74 0 93 50 30 82 -70 36 -265 56 -302 31z"/>
<path d="M4490 2540 c0 -6 15 -27 34 -48 32 -35 38 -37 88 -35 42 2 61 -3 90
-22 44 -29 51 -30 84 -9 31 21 86 14 174 -22 36 -14 88 -27 115 -28 31 -1 71
-12 106 -29 50 -25 73 -29 250 -41 191 -14 234 -23 294 -57 46 -26 119 -46
375 -99 129 -27 350 -74 490 -104 579 -125 787 -149 798 -93 4 22 -42 49 -126
75 -68 21 -397 92 -424 92 -8 0 -34 -13 -56 -30 -50 -36 -48 -35 -55 -10 -3
12 -25 28 -54 41 -188 81 -827 213 -1163 239 -148 12 -175 17 -205 36 -31 20
-161 48 -475 104 -294 52 -340 57 -340 40z"/>
</g>
</svg>
